<svg xmlns="http://www.w3.org/2000/svg" width="25" height="24" fill="none" viewBox="0 0 25 24"><path fill="#fff" d="M18.133 15.723c-.675 0-1.28.271-1.742.696l-6.338-3.75c.045-.208.08-.416.08-.633a3 3 0 0 0-.08-.632L16.32 7.69a2.63 2.63 0 0 0 1.813.732c1.476 0 2.667-1.211 2.667-2.711S19.609 3 18.133 3s-2.666 1.21-2.666 2.71a3 3 0 0 0 .08.633L9.28 10.057a2.63 2.63 0 0 0-1.813-.732c-1.476 0-2.667 1.211-2.667 2.711s1.191 2.711 2.667 2.711a2.63 2.63 0 0 0 1.813-.732l6.329 3.76a2.6 2.6 0 0 0-.071.586c0 1.455 1.164 2.639 2.595 2.639s2.596-1.184 2.596-2.639-1.165-2.638-2.596-2.638"/></svg>