<svg xmlns="http://www.w3.org/2000/svg" width="32" height="26" fill="none" viewBox="0 0 32 26"><path fill="#fff" d="M17.481 6.115q0 2.42 1.265 4.064.897 1.134 2.433 1.489c1.009.235 1.962.251 2.824.051.293 1.742-.184 3.586-1.394 5.54q-1.818 2.93-4.69 4.406l2.9 4.17a19.6 19.6 0 0 0 4.142-2.758 21 21 0 0 0 3.484-3.84c1.026-1.446 1.796-3.08 2.291-4.93a14.8 14.8 0 0 0 .396-5.684c-.308-2.567-1.136-4.62-2.486-6.142Q26.624.17 23.608.17c-1.769 0-3.237.532-4.4 1.61q-1.725 1.584-1.723 4.341zm-16.727 0q0 2.42 1.265 4.064.898 1.155 2.433 1.498 1.54.34 2.823.04c.294 1.724-.165 3.575-1.378 5.537q-1.815 2.915-4.686 4.4l2.89 4.182a19.8 19.8 0 0 0 4.144-2.76 20.7 20.7 0 0 0 3.472-3.838c1.02-1.449 1.779-3.08 2.274-4.932.503-1.85.638-3.781.398-5.683-.305-2.567-1.13-4.62-2.475-6.142Q9.897.186 6.884.186 4.228.182 2.482 1.794.756 3.378.754 6.134z"/></svg>